:FULLY-SPECIFIED
:FORCE-ALL-JOINTS-BE-3DOF
:DEGREES
65
root 9.03412 16.213 -27.3159 5.43173 -11.1674 0.528977
lfemur -26.936 7.73165 -23.3113
ltibia 32.4136 -0 0
lfoot -10.225 6.96695 0.0157451
ltoes -3.79621 0 0
rfemur -2.57892 0.434301 15.0873
rtibia 51.364 -0 0
rfoot 8.37215 -9.79701 0.052694
rtoes -2.43814 0 0
lowerback -5.31887 0.37582 -2.37969
upperback -2.26933 0.585008 2.56814
thorax 0.608448 0.313039 4.00072
lowerneck -22.2725 -4.18653 -11.8201
upperneck 17.7579 -4.85932 12.8319
head 9.94169 -1.61127 5.81363
lclavicle -2.4958e-15 9.02027e-15 2.3117e-31
lhumerus -40.0336 -5.33916 88.9648
lradius 21.5228 -0 0
lwrist -3.29303 0 0
lhand 2.38149 -17.5116 0.0411588
lfingers 7.12502 -0 0
lthumb 27.8662 10.4101 0.0307976
rclavicle -2.4958e-15 9.02027e-15 2.3117e-31
rhumerus -43.4507 13.5933 -91.0581
rradius 37.8132 -0 0
rwrist -19.3471 0 0
rhand -29.5743 -25.6155 -0.000686253
rfingers 7.12502 -0 0
rthumb -2.90632 -55.5754 -0.000664405
66
root 9.03767 16.2097 -27.1929 5.4152 -10.8683 0.616506
lfemur -26.1721 7.58908 -23.3433
ltibia 31.8548 -0 0
lfoot -10.3142 6.85083 0.0206321
ltoes -3.82458 0 0
rfemur -3.24072 0.683746 14.9801
rtibia 50.9268 -0 0
rfoot 7.80316 -9.85662 0.0690786
rtoes -2.77372 0 0
lowerback -5.37225 0.306267 -2.45288
upperback -2.251 0.497118 2.56044
thorax 0.668654 0.267696 4.02426
lowerneck -22.2256 -4.2072 -11.8445
upperneck 17.8207 -4.88405 12.8027
head 9.95872 -1.62924 5.80509
lclavicle -4.16429e-15 9.11151e-15 3.02912e-31
lhumerus -39.8271 -5.68914 89.1183
lradius 21.861 -0 0
lwrist -3.04727 0 0
lhand 2.152 -17.6292 0.0539372
lfingers 7.12502 -0 0
lthumb 27.6458 10.3184 0.0403587
rclavicle -4.16429e-15 9.11151e-15 3.02912e-31
rhumerus -43.5054 13.4811 -90.9251
rradius 37.7437 -0 0
rwrist -19.3418 0 0
rhand -29.583 -25.5636 -0.000899232
rfingers 7.12502 -0 0
rthumb -2.91473 -55.5234 -0.000870603
67
root 9.04123 16.2065 -27.0699 5.39915 -10.5691 0.703862
lfemur -25.4085 7.44694 -23.3772
ltibia 31.2959 -0 0
lfoot -10.4033 6.73469 0.0253383
ltoes -3.85294 0 0
rfemur -3.90302 0.931934 14.8699
rtibia 50.4895 -0 0
rfoot 7.23416 -9.9164 0.0848702
rtoes -3.10931 0 0
lowerback -5.42555 0.236646 -2.52601
upperback -2.23266 0.409231 2.5527
thorax 0.728842 0.222329 4.04775
lowerneck -22.1787 -4.22785 -11.869
upperneck 17.8835 -4.90875 12.7734
head 9.97576 -1.64721 5.79654
lclavicle -5.83278e-15 9.20276e-15 3.71997e-31
lhumerus -39.6213 -6.03966 89.2707
lradius 22.1991 -0 0
lwrist -2.80151 0 0
lhand 1.92249 -17.7468 0.0662445
lfingers 7.12502 -0 0
lthumb 27.4254 10.2267 0.049567
rclavicle -5.83278e-15 9.20276e-15 3.71997e-31
rhumerus -43.5603 13.369 -90.7921
rradius 37.6743 -0 0
rwrist -19.3364 0 0
rhand -29.5917 -25.5117 -0.00110432
rfingers 7.12502 -0 0
rthumb -2.92314 -55.4713 -0.00106916
68
root 9.04478 16.2032 -26.9469 5.38358 -10.2699 0.791048
lfemur -24.645 7.30527 -23.413
ltibia 30.7371 -0 0
lfoot -10.4925 6.61856 0.0298639
ltoes -3.88131 0 0
rfemur -4.56585 1.17883 14.7569
rtibia 50.0523 -0 0
rfoot 6.66514 -9.97633 0.100067
rtoes -3.44489 0 0
lowerback -5.47876 0.166957 -2.59907
upperback -2.21431 0.321346 2.54495
thorax 0.78901 0.176937 4.07119
lowerneck -22.1318 -4.24848 -11.8935
upperneck 17.9464 -4.93341 12.7441
head 9.9928 -1.66517 5.78798
lclavicle -7.50127e-15 9.294e-15 4.38425e-31
lhumerus -39.4164 -6.39073 89.4219
lradius 22.5372 -0 0
lwrist -2.55575 0 0
lhand 1.69296 -17.8645 0.0780804
lfingers 7.12502 -0 0
lthumb 27.205 10.135 0.0584225
rclavicle -7.50127e-15 9.294e-15 4.38425e-31
rhumerus -43.6154 13.257 -90.6591
rradius 37.6049 -0 0
rwrist -19.3311 0 0
rhand -29.6004 -25.4598 -0.00130153
rfingers 7.12502 -0 0
rthumb -2.93155 -55.4193 -0.00126009
69
root 9.04834 16.2 -26.8238 5.36848 -9.97075 0.878071
lfemur -23.8816 7.16408 -23.4507
ltibia 30.1782 -0 0
lfoot -10.5817 6.50241 0.0342086
ltoes -3.90967 0 0
rfemur -5.22923 1.42441 14.641
rtibia 49.6151 -0 0
rfoot 6.0961 -10.0364 0.114669
rtoes -3.78048 0 0
lowerback -5.53188 0.0972005 -2.67207
upperback -2.19594 0.233463 2.53716
thorax 0.84916 0.131521 4.09458
lowerneck -22.0849 -4.2691 -11.918
upperneck 18.0092 -4.95805 12.7147
head 10.0098 -1.68313 5.77942
lclavicle -9.16976e-15 9.38525e-15 5.02196e-31
lhumerus -39.2122 -6.74234 89.572
lradius 22.8754 -0 0
lwrist -2.31 0 0
lhand 1.4634 -17.9822 0.0894449
lfingers 7.12502 -0 0
lthumb 26.9846 10.0432 0.066925
rclavicle -9.16976e-15 9.38525e-15 5.02196e-31
rhumerus -43.6708 13.1452 -90.526
rradius 37.5354 -0 0
rwrist -19.3257 0 0
rhand -29.6091 -25.4078 -0.00149085
rfingers 7.12502 -0 0
rthumb -2.93995 -55.3673 -0.00144338
70
root 9.05189 16.1967 -26.7008 5.35386 -9.67154 0.964935
lfemur -23.1184 7.0234 -23.4903
ltibia 29.6194 -0 0
lfoot -10.6709 6.38626 0.0383725
ltoes -3.93803 0 0
rfemur -5.89319 1.66862 14.5222
rtibia 49.1778 -0 0
rfoot 5.52705 -10.0966 0.128673
rtoes -4.11606 0 0
lowerback -5.58491 0.0273761 -2.745
upperback -2.17757 0.145584 2.52934
thorax 0.909292 0.0860796 4.11792
lowerneck -22.0379 -4.28969 -11.9426
upperneck 18.0721 -4.98265 12.6854
head 10.0269 -1.70109 5.77085
lclavicle -1.08382e-14 9.47649e-15 5.6331e-31
lhumerus -39.0088 -7.09447 89.7209
lradius 23.2135 -0 0
lwrist -2.06424 0 0
lhand 1.23382 -18.1 0.100338
lfingers 7.12502 -0 0
lthumb 26.7642 9.95136 0.0750743
rclavicle -1.08382e-14 9.47649e-15 5.6331e-31
rhumerus -43.7264 13.0335 -90.3928
rradius 37.466 -0 0
rwrist -19.3204 0 0
rhand -29.6178 -25.3559 -0.00167228
rfingers 7.12502 -0 0
rthumb -2.94836 -55.3152 -0.00161904
71
root 9.05545 16.1935 -26.5778 5.33971 -9.3723 1.05165
lfemur -22.3553 6.88326 -23.5318
ltibia 29.0605 -0 0
lfoot -10.7601 6.2701 0.0423556
ltoes -3.9664 0 0
rfemur -6.55774 1.91144 14.4006
rtibia 48.7406 -0 0
rfoot 4.95799 -10.157 0.142078
rtoes -4.45165 0 0
lowerback -5.63785 -0.0425157 -2.81786
upperback -2.15918 0.0577062 2.5215
thorax 0.969404 0.0406141 4.14122
lowerneck -21.991 -4.31026 -11.9671
upperneck 18.135 -5.00722 12.656
head 10.0439 -1.71905 5.76227
lclavicle -1.25067e-14 9.56774e-15 6.21766e-31
lhumerus -38.8062 -7.44712 89.8686
lradius 23.5517 -0 0
lwrist -1.81848 0 0
lhand 1.00421 -18.2178 0.110758
lfingers 7.12502 -0 0
lthumb 26.5437 9.85952 0.0828703
rclavicle -1.25067e-14 9.56774e-15 6.21766e-31
rhumerus -43.7823 12.9219 -90.2596
rradius 37.3965 -0 0
rwrist -19.315 0 0
rhand -29.6265 -25.304 -0.00184582
rfingers 7.12502 -0 0
rthumb -2.95677 -55.2632 -0.00178706
72
root 9.05901 16.1902 -26.4548 5.32604 -9.07304 1.13821
lfemur -21.5924 6.74368 -23.5751
ltibia 28.5016 -0 0
lfoot -10.8493 6.15393 0.0461578
ltoes -3.99476 0 0
rfemur -7.2229 2.15284 14.2762
rtibia 48.3034 -0 0
rfoot 4.38891 -10.2175 0.154883
rtoes -4.78724 0 0
lowerback -5.6907 -0.112475 -2.89067
upperback -2.14078 -0.0301686 2.51363
thorax 1.0295 -0.00487588 4.16447
lowerneck -21.944 -4.33081 -11.9917
upperneck 18.1979 -5.03176 12.6265
head 10.061 -1.737 5.75369
lclavicle -1.41752e-14 9.65898e-15 6.77566e-31
lhumerus -38.6044 -7.80029 90.0153
lradius 23.8898 -0 0
lwrist -1.57272 0 0
lhand 0.774587 -18.3357 0.120707
lfingers 7.12502 -0 0
lthumb 26.3233 9.76764 0.0903129
rclavicle -1.41752e-14 9.65898e-15 6.77566e-31
rhumerus -43.8384 12.8104 -90.1263
rradius 37.3271 -0 0
rwrist -19.3097 0 0
rhand -29.6353 -25.2521 -0.00201148
rfingers 7.12502 -0 0
rthumb -2.96518 -55.2112 -0.00194744
73
root 9.06256 16.187 -26.3317 5.31283 -8.77377 1.22463
lfemur -20.8295 6.60468 -23.6203
ltibia 27.9428 -0 0
lfoot -10.9385 6.03776 0.0497791
ltoes -4.02313 0 0
rfemur -7.88869 2.39278 14.149
rtibia 47.8661 -0 0
rfoot 3.81981 -10.2781 0.167086
rtoes -5.12282 0 0
lowerback -5.74347 -0.182501 -2.96341
upperback -2.12237 -0.118041 2.50573
thorax 1.08957 -0.0503902 4.18767
lowerneck -21.897 -4.35134 -12.0163
upperneck 18.2608 -5.05627 12.5971
head 10.078 -1.75495 5.74511
lclavicle -1.58437e-14 9.75023e-15 7.30708e-31
lhumerus -38.4033 -8.15396 90.1608
lradius 24.2279 -0 0
lwrist -1.32696 0 0
lhand 0.544942 -18.4535 0.130183
lfingers 7.12502 -0 0
lthumb 26.1028 9.67574 0.0974019
rclavicle -1.58437e-14 9.75023e-15 7.30708e-31
rhumerus -43.8947 12.6991 -89.993
rradius 37.2576 -0 0
rwrist -19.3043 0 0
rhand -29.644 -25.2002 -0.00216925
rfingers 7.12502 -0 0
rthumb -2.97359 -55.1591 -0.00210019
74
root 9.06612 16.1837 -26.2087 5.30009 -8.47447 1.31091
lfemur -20.0668 6.46629 -23.6673
ltibia 27.3839 -0 0
lfoot -11.0278 5.92158 0.0532194
ltoes -4.05149 0 0
rfemur -8.55514 2.63122 14.0189
rtibia 47.4289 -0 0
rfoot 3.25071 -10.3388 0.178687
rtoes -5.45841 0 0
lowerback -5.79614 -0.252594 -3.03608
upperback -2.10394 -0.205911 2.4978
thorax 1.14963 -0.0959288 4.21082
lowerneck -21.85 -4.37185 -12.0409
upperneck 18.3237 -5.08074 12.5676
head 10.0951 -1.7729 5.73652
lclavicle -1.75122e-14 9.84147e-15 7.81194e-31
lhumerus -38.2029 -8.50814 90.3051
lradius 24.5661 -0 0
lwrist -1.0812 0 0
lhand 0.315278 -18.5715 0.139186
lfingers 7.12502 -0 0
lthumb 25.8823 9.58381 0.104137
rclavicle -1.75122e-14 9.84147e-15 7.81194e-31
rhumerus -43.9513 12.5879 -89.8597
rradius 37.1882 -0 0
rwrist -19.299 0 0
rhand -29.6527 -25.1483 -0.00231913
rfingers 7.12502 -0 0
rthumb -2.982 -55.1071 -0.0022453
75
root 9.06967 16.1805 -26.0857 5.28781 -8.17515 1.39705
lfemur -19.3041 6.32854 -23.7161
ltibia 26.8251 -0 0
lfoot -11.117 5.8054 0.0564789
ltoes -4.07986 0 0
rfemur -9.22226 2.86813 13.8861
rtibia 46.9917 -0 0
rfoot 2.68159 -10.3997 0.189684
rtoes -5.79399 0 0
lowerback -5.84873 -0.322754 -3.10869
upperback -2.08551 -0.293778 2.48984
thorax 1.20967 -0.141492 4.23393
lowerneck -21.803 -4.39234 -12.0655
upperneck 18.3867 -5.10518 12.5381
head 10.1122 -1.79085 5.72793
lclavicle -1.91807e-14 9.93272e-15 8.29022e-31
lhumerus -38.0032 -8.86282 90.4484
lradius 24.9042 -0 0
lwrist -0.835441 0 0
lhand 0.085595 -18.6894 0.147717
lfingers 7.12502 -0 0
lthumb 25.6618 9.49186 0.110519
rclavicle -1.91807e-14 9.93272e-15 8.29022e-31
rhumerus -44.0082 12.4768 -89.7262
rradius 37.1188 -0 0
rwrist -19.2936 0 0
rhand -29.6614 -25.0964 -0.00246112
rfingers 7.12502 -0 0
rthumb -2.99041 -55.0551 -0.00238277
76
root 9.07323 16.1773 -25.9627 5.276 -7.87582 1.48307
lfemur -18.5415 6.19144 -23.7668
ltibia 26.2662 -0 0
lfoot -11.2063 5.68921 0.0595574
ltoes -4.10822 0 0
rfemur -9.89007 3.10348 13.7505
rtibia 46.5544 -0 0
rfoot 2.11246 -10.4606 0.200076
rtoes -6.12958 0 0
lowerback -5.90123 -0.39298 -3.18124
upperback -2.06706 -0.381643 2.48186
thorax 1.26969 -0.187079 4.25699
lowerneck -21.756 -4.41281 -12.0901
upperneck 18.4497 -5.12959 12.5086
head 10.1292 -1.80879 5.71933
lclavicle -2.08492e-14 1.0024e-14 8.74193e-31
lhumerus -37.8042 -9.21799 90.5905
lradius 25.2424 -0 0
lwrist -0.589681 0 0
lhand -0.144105 -18.8074 0.155774
lfingers 7.12502 -0 0
lthumb 25.4413 9.39988 0.116546
rclavicle -2.08492e-14 1.0024e-14 8.74193e-31
rhumerus -44.0652 12.3659 -89.5928
rradius 37.0493 -0 0
rwrist -19.2883 0 0
rhand -29.6701 -25.0445 -0.00259523
rfingers 7.12502 -0 0
rthumb -2.99882 -55.003 -0.0025126
